<svg xmlns="http://www.w3.org/2000/svg" width="128" height="128" viewBox="0 0 128 128">
  <rect width="128" height="128" rx="24" fill="oklch(0.13 0.014 250)"/>
  <g transform="translate(64,64)">
    <defs>
      <radialGradient id="core">
        <stop offset="0%" stop-color="oklch(0.90 0.06 250)"/>
        <stop offset="40%" stop-color="oklch(0.74 0.07 250)" stop-opacity="0.6"/>
        <stop offset="100%" stop-color="oklch(0.74 0.07 250)" stop-opacity="0"/>
      </radialGradient>
    </defs>
    <!-- Bright core -->
    <circle r="8" fill="url(#core)"/>
    <circle r="3" fill="oklch(0.95 0.03 250)"/>
    <!-- Spiral arm 1 -->
    <path d="M3,0 C8,-14 28,-22 40,-12 C52,-2 38,18 22,20 C6,22 -8,10 -14,0 C-20,-10 -12,-30 4,-36"
          fill="none" stroke="oklch(0.74 0.07 250)" stroke-width="2" opacity="0.6" stroke-linecap="round"/>
    <!-- Spiral arm 2 -->
    <path d="M-3,0 C-8,14 -28,22 -40,12 C-52,2 -38,-18 -22,-20 C-6,-22 8,-10 14,0 C20,10 12,30 -4,36"
          fill="none" stroke="oklch(0.74 0.07 250)" stroke-width="2" opacity="0.6" stroke-linecap="round"/>
    <!-- Subtle outer arm 1 -->
    <path d="M6,-2 C16,-20 38,-30 46,-16 C54,-2 40,22 26,28"
          fill="none" stroke="oklch(0.72 0.10 162)" stroke-width="1" opacity="0.3" stroke-linecap="round"/>
    <!-- Subtle outer arm 2 -->
    <path d="M-6,2 C-16,20 -38,30 -46,16 C-54,2 -40,-22 -26,-28"
          fill="none" stroke="oklch(0.72 0.10 162)" stroke-width="1" opacity="0.3" stroke-linecap="round"/>
    <!-- Star dust -->
    <circle cx="30" cy="-8" r="1.2" fill="oklch(0.74 0.07 250)" opacity="0.5"/>
    <circle cx="-28" cy="10" r="1.2" fill="oklch(0.74 0.07 250)" opacity="0.5"/>
    <circle cx="18" cy="22" r="1" fill="oklch(0.72 0.10 162)" opacity="0.4"/>
    <circle cx="-16" cy="-24" r="1" fill="oklch(0.72 0.10 162)" opacity="0.4"/>
    <circle cx="38" cy="6" r="0.8" fill="oklch(0.74 0.07 250)" opacity="0.3"/>
    <circle cx="-36" cy="-4" r="0.8" fill="oklch(0.74 0.07 250)" opacity="0.3"/>
  </g>
</svg>
